<svg xmlns="http://www.w3.org/2000/svg" viewBox="0 0 24 24"><path d="M12 0a12 12 0 0 0-8.48 20.48l-2.3 2.3A.72.72 0 0 0 1.75 24H12a12 12 0 0 0 0-24Zm4.39 3.2a2 2 0 1 1-1.95 2.46A2.37 2.37 0 0 0 12.41 8c1.77.08 3.4.58 4.68 1.37a2.8 2.8 0 0 1 4.51 2.22 2.8 2.8 0 0 1-1.6 2.53c-.08 3.26-3.63 5.88-8 5.88-4.35 0-7.9-2.62-8-5.87a2.8 2.8 0 1 1 2.9-4.75A9.6 9.6 0 0 1 11.56 8a3.23 3.23 0 0 1 2.88-3.22 2 2 0 0 1 1.96-1.6ZM8.3 11.58c-.78 0-1.46.77-1.5 1.8-.05 1 .64 1.42 1.42 1.42.79 0 1.37-.37 1.42-1.38.05-1.02-.55-1.84-1.34-1.84Zm7.4 0c-.78 0-1.38.82-1.33 1.84.05 1.01.63 1.38 1.42 1.38.78 0 1.47-.41 1.42-1.43-.04-1.02-.72-1.8-1.5-1.8Zm-3.7 4c-.97 0-1.9.06-2.76.14a.22.22 0 0 0-.19.3 3.2 3.2 0 0 0 5.9 0 .22.22 0 0 0-.18-.3 29.9 29.9 0 0 0-2.76-.13Z"/></svg>